<svg xmlns="http://www.w3.org/2000/svg" xmlns:xlink="http://www.w3.org/1999/xlink" version="1.1" width="256" height="256" viewBox="0 0 256 256" xml:space="preserve">

<defs>
</defs>
<g style="stroke: none; stroke-width: 0; stroke-dasharray: none; stroke-linecap: butt; stroke-linejoin: miter; stroke-miterlimit: 10; fill: none; fill-rule: nonzero; opacity: 1;" transform="translate(1.4065934065934016 1.4065934065934016) scale(2.81 2.81)" >
	<path d="M 54.686 49 l 0.051 2.239 c 0 3.134 2.43 5.82 5.776 6.383 l 8.643 1.456 c 4.553 0.767 7.861 4.423 7.861 8.688 v 18.581 c 0 1.465 -1.289 2.653 -2.879 2.653 H 45 H 15.861 c -1.59 0 -2.879 -1.188 -2.879 -2.653 V 67.766 c 0 -4.265 3.308 -7.921 7.861 -8.688 l 8.643 -1.456 c 3.345 -0.563 5.776 -3.25 5.776 -6.383 L 35.317 49 H 54.686 z" style="stroke: none; stroke-width: 1; stroke-dasharray: none; stroke-linecap: butt; stroke-linejoin: miter; stroke-miterlimit: 10; fill: rgb(232,187,137); fill-rule: nonzero; opacity: 1;" transform=" matrix(1 0 0 1 0 0) " stroke-linecap="round" />
	<path d="M 52.217 11.909 c -10.471 0.744 -19.582 3.106 -24.552 10.397 l 0.852 13.016 c 0.201 2.404 0.815 4.707 1.78 6.828 c 0.521 1.146 1.145 2.24 1.862 3.267 c 0.716 1.027 1.526 1.989 2.417 2.871 c 0.244 0.241 0.514 0.455 0.77 0.685 l -0.031 0.03 c 0.241 0.216 0.503 0.409 0.755 0.614 c 0.092 0.075 0.183 0.151 0.276 0.224 c 0.486 0.381 0.99 0.739 1.511 1.077 c 0.087 0.057 0.171 0.117 0.259 0.173 c 0.585 0.367 1.188 0.707 1.813 1.016 c 0.027 0.013 0.052 0.029 0.078 0.042 c 0.666 0.326 1.349 0.626 2.056 0.882 c 0.952 0.344 1.95 0.515 2.947 0.514 c 0.997 0.001 1.995 -0.17 2.947 -0.514 h 0 c 0.708 -0.256 1.391 -0.556 2.057 -0.882 c 0.026 -0.013 0.051 -0.028 0.077 -0.041 c 0.625 -0.309 1.229 -0.65 1.814 -1.017 c 0.088 -0.055 0.172 -0.116 0.259 -0.172 c 0.521 -0.338 1.026 -0.696 1.511 -1.077 c 0.093 -0.073 0.183 -0.149 0.275 -0.223 c 0.252 -0.205 0.514 -0.398 0.756 -0.614 l -0.031 -0.03 c 0.256 -0.229 0.526 -0.443 0.77 -0.684 c 0.892 -0.883 1.701 -1.844 2.417 -2.871 c 0.716 -1.027 1.34 -2.121 1.862 -3.267 c 0.965 -2.121 1.578 -4.424 1.78 -6.828 l 0.852 -13.016 C 60.391 15.329 58.171 8.984 52.217 11.909 z" style="stroke: none; stroke-width: 1; stroke-dasharray: none; stroke-linecap: butt; stroke-linejoin: miter; stroke-miterlimit: 10; fill: rgb(232,187,137); fill-rule: nonzero; opacity: 1;" transform=" matrix(1 0 0 1 0 0) " stroke-linecap="round" />
	<path d="M 63.028 22.817 C 65.441 5.582 57.03 1 45.232 1 h 0 C 34.98 1 25.445 3.471 26.724 20.048 c 14.705 1.322 26.687 -2.192 32.31 -15.001 C 53.41 15.61 58.128 19.051 63.028 22.817 z" style="stroke: none; stroke-width: 1; stroke-dasharray: none; stroke-linecap: butt; stroke-linejoin: miter; stroke-miterlimit: 10; fill: rgb(72,73,84); fill-rule: nonzero; opacity: 1;" transform=" matrix(1 0 0 1 0 0) " stroke-linecap="round" />
	<path d="M 30.966 57.208 c 9.385 9.246 18.741 9.217 28.067 0 l -0.002 0.006 c 0.468 0.183 0.964 0.321 1.482 0.408 l 8.643 1.456 c 4.553 0.767 7.861 4.423 7.861 8.688 v 8.576 l -0.067 0 h -7.873 c -2.894 0 -5.239 2.161 -5.235 4.828 c 0.005 3.426 0.007 7.477 -0.009 7.83 c 0 0 -18.834 0 -18.834 0 H 26.099 c -0.016 -0.352 -0.013 -4.404 -0.009 -7.83 c 0.004 -2.667 -2.341 -4.828 -5.235 -4.828 h -7.873 c 0 0 0 -8.576 0 -8.576 c 0 -4.265 3.308 -7.921 7.861 -8.688 l 8.643 -1.456 c 0.518 -0.087 1.014 -0.225 1.482 -0.408 L 30.966 57.208 z" style="stroke: none; stroke-width: 1; stroke-dasharray: none; stroke-linecap: butt; stroke-linejoin: miter; stroke-miterlimit: 10; fill: rgb(214,244,252); fill-rule: nonzero; opacity: 1;" transform=" matrix(1 0 0 1 0 0) " stroke-linecap="round" />
	<path d="M 45 63.01 c 0 1.936 -1.57 3.506 -3.506 3.506 h 0 c -1.936 0 -3.506 -1.57 -3.506 -3.506 V 42.796 L 37.985 42.8 c -1.155 -1.017 -1.317 -3.201 -0.548 -4.803 c 1.5 -2.506 5.252 1.287 7.563 0 c 2.859 -1.838 7.228 -3.858 8.05 -1.293 c 0.133 1.71 -0.241 3.034 -1.033 4.063 l -0.005 -0.004 v 30.891 c 0 1.936 -1.57 3.506 -3.506 3.506 h 0 C 46.57 75.16 45 73.59 45 71.654 V 57.391" style="stroke: none; stroke-width: 1; stroke-dasharray: none; stroke-linecap: butt; stroke-linejoin: miter; stroke-miterlimit: 10; fill: rgb(247,224,111); fill-rule: nonzero; opacity: 1;" transform=" matrix(1 0 0 1 0 0) " stroke-linecap="round" />
	<path d="M 42.146 28.303 c -0.156 0 -0.313 -0.036 -0.461 -0.113 c -1.82 -0.949 -3.59 -0.949 -5.41 0 c -0.492 0.255 -1.094 0.064 -1.349 -0.424 c -0.255 -0.49 -0.065 -1.094 0.424 -1.349 c 2.409 -1.256 4.851 -1.256 7.26 0 c 0.49 0.255 0.68 0.859 0.424 1.349 C 42.855 28.107 42.507 28.303 42.146 28.303 z" style="stroke: none; stroke-width: 1; stroke-dasharray: none; stroke-linecap: butt; stroke-linejoin: miter; stroke-miterlimit: 10; fill: rgb(0,0,0); fill-rule: nonzero; opacity: 1;" transform=" matrix(1 0 0 1 0 0) " stroke-linecap="round" />
	<path d="M 54.187 28.303 c -0.155 0 -0.313 -0.036 -0.461 -0.113 c -1.82 -0.949 -3.59 -0.949 -5.41 0 c -0.491 0.257 -1.093 0.065 -1.349 -0.424 c -0.255 -0.49 -0.065 -1.094 0.424 -1.349 c 2.41 -1.256 4.85 -1.256 7.26 0 c 0.489 0.255 0.679 0.859 0.424 1.349 C 54.896 28.107 54.548 28.303 54.187 28.303 z" style="stroke: none; stroke-width: 1; stroke-dasharray: none; stroke-linecap: butt; stroke-linejoin: miter; stroke-miterlimit: 10; fill: rgb(0,0,0); fill-rule: nonzero; opacity: 1;" transform=" matrix(1 0 0 1 0 0) " stroke-linecap="round" />
	<path d="M 69.323 58.092 l -8.644 -1.456 c -2.864 -0.482 -4.942 -2.752 -4.942 -5.419 l -0.041 -1.816 c 0.148 -0.138 0.309 -0.261 0.452 -0.403 c 0.932 -0.923 1.784 -1.936 2.534 -3.01 c 0.75 -1.074 1.406 -2.227 1.951 -3.425 c 1.03 -2.266 1.658 -4.674 1.868 -7.176 l 0.76 -11.615 c 0.048 -0.012 0.098 -0.009 0.144 -0.028 c 0.329 -0.135 0.563 -0.435 0.611 -0.787 c 1.123 -8.016 0.05 -13.775 -3.281 -17.604 C 57.604 1.75 52.533 0 45.232 0 C 40.03 0 33.541 0.559 29.508 4.915 c -3.077 3.324 -4.314 8.299 -3.781 15.21 c 0.036 0.466 0.392 0.833 0.848 0.903 L 27.5 35.405 c 0.448 5.36 2.927 10.377 6.806 14.017 l -0.044 1.817 c 0 2.645 -2.079 4.914 -4.942 5.396 l -8.643 1.456 c -5.039 0.849 -8.695 4.917 -8.695 9.674 v 18.582 c 0 2.014 1.74 3.652 3.879 3.652 h 58.278 c 2.139 0 3.879 -1.639 3.879 -3.652 V 67.766 C 78.018 63.009 74.361 58.94 69.323 58.092 z M 53.737 51.239 c 0 2.563 1.394 4.858 3.562 6.214 c -1.403 1.281 -2.81 2.362 -4.207 3.209 v -9.176 c 0.217 -0.148 0.428 -0.305 0.641 -0.461 L 53.737 51.239 z M 46 57.533 c 0 -0.553 -0.448 -1 -1 -1 s -1 0.447 -1 1 v 5.684 c 0 1.404 -1.142 2.546 -2.546 2.546 c -1.404 0 -2.546 -1.142 -2.546 -2.546 V 42.771 c 0 -0.014 -0.007 -0.026 -0.008 -0.04 c -0.002 -0.045 -0.018 -0.087 -0.026 -0.131 c -0.016 -0.087 -0.029 -0.173 -0.065 -0.25 c -0.01 -0.02 -0.027 -0.036 -0.038 -0.056 c -0.053 -0.096 -0.115 -0.184 -0.196 -0.258 c -0.004 -0.004 -0.005 -0.009 -0.009 -0.012 c -0.778 -0.686 -0.925 -2.402 -0.357 -3.594 c 0.335 -0.563 0.847 -0.542 2.737 0.106 c 1.448 0.497 3.092 1.061 4.596 0.221 c 2.713 -1.744 5.226 -2.665 6.241 -2.301 c 0.137 0.049 0.275 0.128 0.374 0.361 c 0.084 1.361 -0.194 2.439 -0.851 3.291 c -0.015 0.02 -0.018 0.043 -0.031 0.064 c -0.052 0.078 -0.094 0.159 -0.123 0.25 c -0.013 0.043 -0.019 0.086 -0.026 0.13 c -0.009 0.055 -0.033 0.105 -0.033 0.162 v 31.247 c 0 1.404 -1.142 2.546 -2.546 2.546 S 46 73.365 46 71.961 V 57.533 z M 59.327 6.781 c 2.58 3.057 3.56 7.817 2.919 14.167 c -3.872 -3.058 -6.557 -6.013 -3.382 -13.271 C 59.022 7.383 59.178 7.083 59.327 6.781 z M 30.975 6.273 C 34.482 2.486 40.437 2 45.232 2 c 5.624 0 9.755 1.079 12.55 3.288 c -0.25 0.496 -0.478 0.978 -0.684 1.445 c -5.099 9.412 -14.683 13.479 -29.196 12.405 c -0.075 -0.032 -0.156 -0.044 -0.24 -0.057 C 27.34 13.224 28.426 9.028 30.975 6.273 z M 29.495 35.257 l -0.906 -14.071 c 12.242 0.753 21.132 -2.079 26.905 -8.631 c -0.357 4.964 2.625 7.707 5.829 10.209 l -0.815 12.474 c -0.189 2.255 -0.759 4.441 -1.694 6.497 c -0.495 1.088 -1.091 2.133 -1.771 3.108 c -0.681 0.977 -1.455 1.896 -2.3 2.733 c -0.521 0.515 -1.075 0.995 -1.65 1.449 v -8.023 c 0.817 -1.219 1.184 -2.712 1.048 -4.471 l -0.045 -0.228 c -0.271 -0.844 -0.837 -1.441 -1.638 -1.729 c -2.293 -0.824 -5.995 1.213 -7.944 2.468 c -0.67 0.374 -1.814 -0.019 -2.919 -0.398 c -1.628 -0.559 -3.856 -1.322 -5.145 0.838 c -0.925 1.926 -0.7 4.299 0.459 5.674 v 5.866 C 32.681 45.675 29.946 40.652 29.495 35.257 z M 36.262 51.264 l 0.005 -0.208 c 0.209 0.154 0.425 0.299 0.641 0.445 v 9.152 c -1.396 -0.846 -2.802 -1.925 -4.205 -3.201 C 34.87 56.098 36.263 53.809 36.262 51.264 z M 21.009 60.064 l 8.643 -1.456 c 0.37 -0.062 0.727 -0.154 1.076 -0.261 c 2.046 1.951 4.119 3.491 6.18 4.596 v 0.273 c 0 2.507 2.04 4.546 4.546 4.546 c 0.943 0 1.819 -0.289 2.546 -0.782 v 4.98 c 0 2.507 2.039 4.546 4.546 4.546 s 4.546 -2.039 4.546 -4.546 v -9.008 c 2.062 -1.105 4.135 -2.649 6.181 -4.605 c 0.349 0.106 0.705 0.198 1.075 0.26 l 8.644 1.456 c 4.071 0.686 7.026 3.924 7.026 7.701 v 7.576 h -6.939 c -1.724 0 -3.387 0.675 -4.563 1.853 c -1.081 1.082 -1.675 2.495 -1.673 3.977 c 0.006 3.897 0.004 5.849 0.001 6.829 H 27.09 c -0.003 -0.98 -0.005 -2.932 0 -6.829 c 0.002 -1.482 -0.593 -2.895 -1.674 -3.978 c -1.175 -1.177 -2.838 -1.852 -4.562 -1.852 h -6.873 v -7.576 C 13.982 63.988 16.938 60.75 21.009 60.064 z M 13.982 86.348 v -9.006 h 6.873 c 1.197 0 2.344 0.461 3.146 1.265 c 0.703 0.704 1.09 1.614 1.089 2.563 c -0.005 3.34 -0.005 5.607 0 6.831 h -9.229 C 14.825 88 13.982 87.259 13.982 86.348 z M 74.139 88 h -9.296 c 0.005 -1.224 0.005 -3.492 0 -6.831 c -0.001 -0.948 0.385 -1.857 1.089 -2.562 c 0.803 -0.805 1.949 -1.266 3.146 -1.266 h 6.939 v 9.006 C 76.018 87.259 75.175 88 74.139 88 z" style="stroke: none; stroke-width: 1; stroke-dasharray: none; stroke-linecap: butt; stroke-linejoin: miter; stroke-miterlimit: 10; fill: rgb(0,0,0); fill-rule: nonzero; opacity: 1;" transform=" matrix(1 0 0 1 0 0) " stroke-linecap="round" />
	<path d="M 45 50.516 c -0.552 0 -1 -0.447 -1 -1 v -4.384 c 0 -0.552 0.448 -1 1 -1 s 1 0.448 1 1 v 4.384 C 46 50.068 45.552 50.516 45 50.516 z" style="stroke: none; stroke-width: 1; stroke-dasharray: none; stroke-linecap: butt; stroke-linejoin: miter; stroke-miterlimit: 10; fill: rgb(0,0,0); fill-rule: nonzero; opacity: 1;" transform=" matrix(1 0 0 1 0 0) " stroke-linecap="round" />
	<path d="M 39.929 82.634 c -0.552 0 -1 -0.447 -1 -1 v -7.941 c 0 -0.553 0.448 -1 1 -1 s 1 0.447 1 1 v 7.941 C 40.929 82.187 40.481 82.634 39.929 82.634 z" style="stroke: none; stroke-width: 1; stroke-dasharray: none; stroke-linecap: butt; stroke-linejoin: miter; stroke-miterlimit: 10; fill: rgb(0,0,0); fill-rule: nonzero; opacity: 1;" transform=" matrix(1 0 0 1 0 0) " stroke-linecap="round" />
	<path d="M 48.546 84.656 c -0.553 0 -1 -0.447 -1 -1 v -2.198 c 0 -0.553 0.447 -1 1 -1 s 1 0.447 1 1 v 2.198 C 49.546 84.209 49.099 84.656 48.546 84.656 z" style="stroke: none; stroke-width: 1; stroke-dasharray: none; stroke-linecap: butt; stroke-linejoin: miter; stroke-miterlimit: 10; fill: rgb(0,0,0); fill-rule: nonzero; opacity: 1;" transform=" matrix(1 0 0 1 0 0) " stroke-linecap="round" />
</g>
</svg>